<?xml version="1.0" encoding="UTF-8" standalone="no"?>
<!-- Created with Inkscape (http://www.inkscape.org/) -->

<svg
   xmlns:dc="http://purl.org/dc/elements/1.1/"
   xmlns:cc="http://creativecommons.org/ns#"
   xmlns:rdf="http://www.w3.org/1999/02/22-rdf-syntax-ns#"
   xmlns:svg="http://www.w3.org/2000/svg"
   xmlns="http://www.w3.org/2000/svg"
   xmlns:sodipodi="http://sodipodi.sourceforge.net/DTD/sodipodi-0.dtd"
   xmlns:inkscape="http://www.inkscape.org/namespaces/inkscape"
   width="210mm"
   height="297mm"
   viewBox="0 0 210 297"
   version="1.1"
   id="svg29"
   inkscape:version="0.92.1 r15371"
   sodipodi:docname="logo3.svg">
  <defs
     id="defs23">
    <inkscape:perspective
       sodipodi:type="inkscape:persp3d"
       inkscape:vp_x="0 : 148.5 : 1"
       inkscape:vp_y="0 : 1000 : 0"
       inkscape:vp_z="210 : 148.5 : 1"
       inkscape:persp3d-origin="105 : 99 : 1"
       id="perspective26" />
  </defs>
  <sodipodi:namedview
     id="base"
     pagecolor="#ffffff"
     bordercolor="#666666"
     borderopacity="1.0"
     inkscape:pageopacity="0.0"
     inkscape:pageshadow="2"
     inkscape:zoom="0.35"
     inkscape:cx="400"
     inkscape:cy="560"
     inkscape:document-units="mm"
     inkscape:current-layer="layer1"
     showgrid="false"
     inkscape:window-width="1600"
     inkscape:window-height="837"
     inkscape:window-x="-8"
     inkscape:window-y="-8"
     inkscape:window-maximized="1" />
  <metadata
     id="metadata26">
    <rdf:RDF>
      <cc:Work
         rdf:about="">
        <dc:format>image/svg+xml</dc:format>
        <dc:type
           rdf:resource="http://purl.org/dc/dcmitype/StillImage" />
        <dc:title />
      </cc:Work>
    </rdf:RDF>
  </metadata>
  <g
     inkscape:label="Capa 1"
     inkscape:groupmode="layer"
     id="layer1">
    <path
       style="fill:#000080;fill-opacity:0.98645797;fill-rule:evenodd;stroke-width:0.31766924"
       id="path47"
       d="m 47.004283,43.081932 c 1.263294,9.35998 1.487576,18.79144 1.711155,28.20311 0.815082,13.684387 -1.715821,27.215007 -4.493265,40.628338 -2.728668,12.15408 -6.207759,24.17892 -10.08491,36.09503 -3.396192,10.80901 -6.773091,21.62203 -10.164964,32.43216 -3.446312,10.59352 -7.602752,20.98123 -12.235977,31.22587 -4.3095299,9.01449 -9.0489623,17.87214 -13.7867075,26.72322 -2.5208831,4.94487 -5.5987775,9.65828 -8.7473885,14.31983 0,0 -20.762777,7.93789 -20.762777,7.93789 v 0 c 3.425926,-4.63595 6.75547,-9.35751 9.438549,-14.35207 4.829937,-8.83237 9.619233,-17.68938 14.0186525,-26.68908 4.7239938,-10.18081 9.06737131,-20.47537 12.415053,-31.06704 3.4281396,-10.82998 6.8612885,-21.65762 10.2606455,-32.49429 3.955209,-11.90363 7.595877,-23.90249 10.440818,-36.04352 2.846239,-13.26443 5.508927,-26.65207 4.518654,-40.206623 -0.381193,-9.123133 -0.600955,-18.35596 -2.786178,-27.317861 0,0 20.25864,-9.394964 20.25864,-9.394964 z"
       inkscape:connector-curvature="0" />
    <path
       style="fill:#000080;fill-opacity:0.98645785;fill-rule:evenodd;stroke-width:0.39034888"
       id="path49"
       d="M 8.2950668,79.72621 C 11.95704,74.291266 15.598419,68.820036 19.471572,63.617909 26.934093,55.025581 35.82242,46.441302 45.950151,44.462335 c 1.564471,-0.3057 2.253217,-0.272649 3.870719,-0.346395 5.620765,-0.0022 11.255951,-0.248238 16.852205,0.472932 6.922485,0.857143 13.075486,4.846318 19.211158,8.649113 4.989197,3.244717 10.057112,6.231338 15.571807,7.712684 3.73522,1.103567 7.30951,0.563157 10.98479,-0.509768 8.70033,-2.238588 36.027,-22.819805 4.03407,0.165819 9.25702,-6.493204 17.77159,-14.344862 25.64675,-23.216787 5.8845,-7.204083 11.14268,-15.203381 15.84316,-23.656354 0.49967,-0.946245 0.99934,-1.892489 1.49901,-2.838731 0,0 21.2393,-11.63684293 21.2393,-11.63684293 v 0 c -0.53363,0.98221892 -1.06725,1.96443943 -1.60089,2.94665773 -4.79792,8.6559752 -10.17682,16.8032752 -15.98546,24.4240462 -7.83725,9.120297 -16.36039,17.192006 -25.65794,23.865116 -13.89812,10.064579 -27.84997,22.233418 -43.613537,27.598462 -3.915488,0.842612 -7.753548,0.897614 -11.604383,-0.534324 -5.464985,-1.970194 -10.488901,-5.260885 -15.549922,-8.46239 -5.994727,-3.63924 -12.041179,-7.175761 -18.806533,-7.689299 -5.606044,-0.423182 -11.247464,-0.303171 -16.851563,0.136632 -1.462758,0.258987 -2.278919,0.316267 -3.658821,0.868298 -0.530819,0.212355 -2.031659,1.131073 -1.554479,0.770471 6.114555,-4.620765 12.333761,-9.020515 18.484754,-13.564667 0.544816,-0.402491 -1.140559,0.696862 -1.665406,1.139077 -0.603358,0.508366 -1.137783,1.134734 -1.706675,1.702096 -4.00996,4.804333 -7.516434,10.22354 -10.991336,15.632808 0,0 -21.6458622,11.635216 -21.6458622,11.635216 z"
       inkscape:connector-curvature="0" />
    <path
       style="fill:#000080;fill-opacity:0.98645791;fill-rule:evenodd;stroke-width:0.34797043"
       id="path51"
       d="m 130.85598,70.504982 c 1.98014,1.107503 4.20189,1.920617 6.09429,3.131589 0.95031,0.60811 1.81963,1.289193 2.74699,1.918349 2.09295,1.410612 3.30998,3.359337 4.97408,5.038891 1.8965,1.797013 3.63107,3.646687 5.07259,5.69171 1.56372,2.234696 3.27514,4.40459 4.65019,6.715503 1.56049,1.992603 2.74111,4.124581 3.96074,6.251034 1.75615,2.362782 2.8986,4.935592 4.23904,7.443732 1.42131,2.6809 2.51894,5.46232 3.27116,8.30257 0.42363,3.0509 1.22458,6.05117 2.06299,9.04706 1.02802,3.36597 1.56417,6.80033 1.84849,10.24758 0.24148,3.3106 0.18517,6.62879 0.17776,9.94321 0.0901,3.86633 -0.0421,7.72365 -0.36892,11.58104 -0.4736,5.00591 -2.3831,9.8376 -4.21337,14.62445 -2.03405,5.68363 -4.24589,11.32646 -6.39575,16.98476 -2.2313,5.99804 -5.53115,11.65636 -9.20604,17.18685 -3.09428,4.28938 -5.63773,8.78159 -8.00656,13.33498 -1.85487,3.44862 -3.53255,6.95191 -5.33006,10.41838 -1.03519,2.08865 -2.38159,4.08088 -3.96143,5.94995 -1.60627,1.81617 -3.37189,3.55328 -5.2693,5.1914 -2.24541,1.90804 -4.10848,4.05995 -6.26164,6.02785 -6.62349,6.31107 -17.73323,8.7227 -26.523896,12.61507 -2.396902,1.0613 0.407274,-0.0338 -2.067548,0.89776 0,0 20.869204,-13.01389 20.869204,-13.01389 v 0 c 8.20445,-3.48599 15.54286,-7.16165 -19.738983,8.97919 -1.527105,0.69862 1.272012,-0.29908 1.975194,-0.70502 0.336161,-0.19408 0.620488,-0.43725 0.930733,-0.65588 2.113101,-2.02308 4.415096,-3.94088 6.229616,-6.14603 0.93623,-0.75266 1.98304,-1.50171 2.79614,-2.34057 0.29112,-0.30038 0.48502,-0.65485 0.79197,-0.94553 0.28198,-0.26703 0.64212,-0.4777 0.96317,-0.71656 0.28058,-0.2891 0.56114,-0.57821 0.84173,-0.86732 1.58333,-1.80585 3.20394,-3.62186 4.28057,-5.65373 2.05785,-3.42044 3.65812,-6.99128 5.62012,-10.44504 2.31642,-4.67211 4.88806,-9.26687 8.11332,-13.60885 3.6951,-5.43543 7.21017,-10.92244 9.45341,-16.84817 2.17595,-5.62027 4.28753,-11.2556 6.22724,-16.92748 1.8151,-4.64522 3.73667,-9.31728 4.36868,-14.16885 0.31853,-3.80157 0.34824,-7.59702 0.30608,-11.40612 -0.006,-3.2738 -0.0201,-6.54821 -0.15426,-9.8206 -0.21336,-3.34641 -0.57805,-6.69473 -1.60887,-9.95865 -0.90901,-2.99618 -1.88252,-5.99517 -2.21608,-9.06547 -0.60789,-2.72355 -1.6578,-5.36989 -2.9669,-7.93802 -1.35184,-2.47745 -2.53042,-5.01249 -4.27525,-7.34936 -1.27964,-2.10437 -2.40597,-4.25403 -3.94217,-6.25827 -1.33771,-2.27659 -3.04934,-4.391916 -4.57091,-6.594054 -1.35528,-1.968382 -3.17951,-3.643054 -4.97443,-5.374826 -1.51781,-1.588472 -2.62502,-3.419589 -4.56826,-4.745865 -2.6388,-1.838543 -5.47756,-3.427566 -8.69062,-4.620927 0,0 22.44575,-11.347826 22.44575,-11.347826 z"
       inkscape:connector-curvature="0" />
    <path
       style="fill:#000080;fill-opacity:0.98645785;fill-rule:evenodd;stroke-width:0.46439958"
       id="path53"
       d="m 24.694174,153.54065 c 1.98866,-3.93674 3.963323,-7.88362 6.038351,-11.70742 1.6948,-2.64417 3.497897,-5.37804 5.564019,-7.2933 22.481882,-20.84058 14.433459,-16.58678 24.283077,-21.55216 2.862129,-1.0633 5.702456,-2.00952 8.636006,-2.39851 3.65948,-0.46542 7.366593,-0.0603 10.968865,1.04265 3.798901,1.29804 7.260487,4.01892 10.717002,6.75539 3.419885,2.55558 6.814522,5.24685 10.109866,8.19835 3.07969,3.08672 6.11602,6.26553 9.05358,9.69156 1.46197,1.46401 3.05188,3.26047 4.83885,3.50197 1.22538,0.1655 2.45895,-0.0849 3.6885,-0.12109 3.17356,-0.0819 5.99703,-2.26639 8.96489,-3.71806 3.75123,-1.83486 1.08658,-0.20411 4.59933,-2.57484 -1.36945,1.61225 5.35878,-4.49602 4.047,-3.2897 -6.44064,5.92286 -12.89143,11.8175 -19.34316,17.70947 -0.52327,0.47789 1.03507,-0.98727 1.55766,-1.46703 22.90209,-21.02433 14.53542,-15.6192 23.98076,-21.5838 0,0 -19.43763,24.65362 -19.43763,24.65362 v 0 c -7.97339,6.61801 -1.81612,1.54546 18.52004,-17.24673 0.53778,-0.49694 -1.07037,1.00827 -1.60878,1.50347 -8.95184,8.23283 -17.44663,17.83773 -27.05443,23.92577 -4.595,2.46784 -9.22792,5.25017 -14.144742,5.1902 -4.173957,-0.16998 -6.206952,-1.24056 -9.501844,-5.2942 -2.869383,-3.30897 -5.798227,-6.48171 -8.874267,-9.28595 -3.267554,-2.80836 -6.554028,-5.58728 -9.913423,-8.10146 -3.374154,-2.38101 -6.747673,-4.86847 -10.436406,-5.71362 -3.525145,-0.6768 -7.068902,-1.03363 -10.597493,-0.13244 -2.793925,0.69882 -5.599977,1.62599 -8.256468,3.193 -8.260245,6.2268 -2.048256,1.62385 18.248766,-17.24467 0.502145,-0.4668 -1.010998,0.9173 -1.497676,1.42424 -1.010483,1.05247 -1.996142,2.16662 -2.964647,3.31547 -0.442048,0.52436 -0.859487,1.09972 -1.289231,1.64959 -2.207586,3.45654 -4.18478,7.34476 -5.946797,11.39007 0,0 -22.949568,15.58032 -22.949568,15.58032 z"
       inkscape:connector-curvature="0" />
    <path
       style="fill:#000080;fill-opacity:0.98645797;fill-rule:evenodd;stroke-width:0.34831315"
       id="path65"
       d="m 130.85598,70.504982 c 6.98977,3.331238 14.07848,6.403522 21.12035,9.600658 4.58103,2.257012 9.0828,4.734311 13.95628,6.182613 2.60586,0.774413 3.78229,0.917697 6.41435,1.398463 4.50506,0.75936 9.06507,0.739754 13.60932,0.795163 8.47482,0.248734 16.94223,0.09125 25.40109,-0.50442 7.62299,-0.6547 15.1971,-1.98516 22.44561,-4.693513 3.5105,-1.311672 5.78851,-2.480803 9.15428,-4.08331 3.70882,-1.842202 3.40948,-1.634247 6.81128,-3.532028 0.8711,-0.485969 3.44622,-2.021405 2.5985,-1.48885 -33.31819,20.930909 -21.44685,13.560544 -14.35661,8.711954 3.14418,-1.958544 5.75789,-4.44829 8.0474,-7.470518 1.40126,-1.83681 0.73256,-0.919505 2.01027,-2.748339 0,0 22.35044,-10.549376 22.35044,-10.549376 v 0 c -1.21669,2.01161 -0.57144,1.023472 -1.93865,2.962187 -2.43894,3.072117 -4.49433,6.407726 -7.98161,8.250473 -2.53387,1.925353 -1.40113,1.151633 -4.11374,2.857402 -10.58187,6.654207 -20.57254,13.885178 -31.86507,18.818003 -3.48933,1.527255 -5.52702,2.509562 -9.18207,3.718761 -7.33853,2.427795 -14.96992,3.535705 -22.59907,4.152365 -8.77965,0.65327 -17.57231,1.00098 -26.37338,1.04146 -4.57042,-0.0175 -9.13602,-0.37102 -13.62391,-1.3662 -2.62559,-0.61006 -3.93647,-0.84651 -6.53318,-1.73774 -4.81391,-1.652198 -9.26569,-4.247432 -13.86156,-6.470246 -7.13895,-3.228349 -14.26927,-6.555588 -21.69184,-8.952034 0,0 20.20152,-14.892928 20.20152,-14.892928 z"
       inkscape:connector-curvature="0" />
    <path
       style="fill:#000080;fill-opacity:0.98645785;fill-rule:evenodd;stroke-width:0.44137886"
       id="path79"
       d="m 174.13963,160.97274 c 7.82932,-3.78239 15.91501,-6.30457 23.85341,-9.55287 4.58094,-1.44886 9.10331,-4.2043 13.82616,-4.75534 1.48004,-0.17277 4.48114,0.16172 5.95203,0.28879 7.27055,1.68536 14.17995,5.37154 21.30787,7.88962 4.43227,1.87676 8.91011,3.4063 13.52372,3.99227 0.54697,0.0412 1.09395,0.0825 1.64092,0.12377 0,0 -19.57179,19.64119 -19.57179,19.64119 v 0 c -0.56415,-0.0822 -1.12828,-0.16428 -1.69243,-0.24645 -4.54503,-0.97133 -8.92569,-2.83349 -13.3068,-4.76231 -6.98936,-2.70398 -13.8783,-6.29644 -21.15601,-7.13924 -2.46997,-0.0335 -3.21831,-0.17991 -5.65149,0.31774 -4.53064,0.92654 -8.90709,3.06795 -13.33625,4.60133 -8.22996,3.14757 -16.50722,6.09592 -24.47735,10.42844 0,0 19.08801,-20.82694 19.08801,-20.82694 z"
       inkscape:connector-curvature="0" />
    <path
       style="fill:#000080;fill-opacity:0.98645785;fill-rule:evenodd;stroke-width:0.34298599"
       id="path81"
       d="m 107.16683,243.50443 c 0.38359,-0.27987 1.52345,-1.14825 1.15076,-0.83963 -4.69535,3.88827 -9.41078,7.72651 -14.12016,11.57974 -0.67213,0.54994 1.33355,-1.12667 2.00837,-1.66982 10.9745,-8.83333 14.86451,-13.08588 24.38651,-18.13511 4.93881,-2.7279 9.88193,-5.51919 15.06257,-7.15233 2.42858,-0.53876 4.84357,-1.10092 7.29761,-1.35292 3.35855,-0.51849 6.66626,-1.49347 10.02148,-2.0524 2.16046,-0.22327 4.36448,-0.66994 6.53616,-0.48447 1.21367,0.10366 3.24444,0.68764 4.39147,0.98424 6.95455,2.21497 13.77042,5.17503 20.59463,8.07755 4.83192,1.9199 9.65242,4.04686 14.30522,6.7423 2.88561,1.92492 5.81754,3.66482 8.81275,5.20823 1.79649,0.3569 3.28935,1.89583 4.94901,2.80591 0.34953,0.19166 2.38487,1.11893 2.66839,1.24928 2.96083,1.32824 6.06149,1.59346 9.13907,1.78352 2.16992,0.10227 4.34136,0.0978 6.51211,0.0849 0,0 -14.9321,15.53366 -14.9321,15.53366 v 0 c -2.17479,-0.041 -4.34986,-0.0804 -6.52278,-0.22749 -3.20226,-0.27519 -6.39897,-0.79908 -9.44858,-2.31483 -2.62302,-1.22543 -5.07242,-3.03636 -7.73099,-4.11418 -2.92575,-1.70438 -5.8048,-3.54421 -8.68742,-5.39006 -4.53247,-2.63921 -9.20295,-4.81565 -13.87545,-6.87994 -6.79071,-3.05316 -13.64922,-5.87398 -20.68583,-7.51511 -3.60294,-0.59317 -7.18514,-0.52755 -10.78033,0.23192 -3.37718,0.66781 -6.73309,1.55325 -10.12591,2.05855 -2.37689,0.40212 -4.74717,0.93529 -7.09758,1.57766 -4.96876,1.736 -9.75681,4.3356 -14.51114,7.0115 -1.10499,0.64329 -2.22126,1.24813 -3.31497,1.92988 -1.03202,0.6433 -4.014,2.90017 -3.06021,2.04403 4.30693,-3.86592 8.75939,-7.38837 13.13658,-11.08865 0.64138,-0.5422 -1.28389,1.08171 -1.92916,1.61438 -17.72937,14.6363 -11.37047,10.3394 -18.77423,15.2639 0,0 14.62415,-16.56423 14.62415,-16.56423 z"
       inkscape:connector-curvature="0" />
    <ellipse
       style="fill:#000080;fill-opacity:0.98645815;fill-rule:evenodd;stroke-width:0.26458332"
       id="path28"
       cx="77.168938"
       cy="247.40828"
       rx="15.180845"
       ry="11.640421" />
    <path
       style="fill:#008000;fill-opacity:0.98645827;fill-rule:evenodd;stroke-width:2.85714293"
       d="m -99.144119,958.18026 c 8.526159,-13.17046 25.91589,-43.37572 38.643848,-67.1228 45.185585,-84.30463 59.99452243,-121.43375 104.713125,-262.53777 58.171906,-183.55426 68.218516,-229.8982 68.009006,-313.71812 -0.0739,-29.54497 -0.81964,-54.40347 -1.65731,-55.24114 -0.83766,-0.83766 -16.691813,6.6212 -35.231444,16.57526 -18.539635,9.95405 -34.903452,18.58905 -36.364043,19.18891 -5.011692,2.0582 33.887323,-52.28941 49.509691,-69.17229 8.591886,-9.28514 15.663316,-19.32284 15.714286,-22.30601 0.0703,-4.11135 8.73554,-9.49183 35.80696,-22.23338 19.64286,-9.24518 36.35714,-15.97328 37.14286,-14.95133 0.78571,1.02195 18.78571,2.03385 40,2.24867 46.89565,0.47486 58.02968,3.84397 102.72145,31.08304 55.82086,34.02211 79.38869,39.52629 113.59995,26.53085 9.09465,-3.45469 18.05677,-6.54257 19.91583,-6.86196 4.15582,-0.71399 41.53528,-27.17952 40.2306,-28.4842 -0.51598,-0.51596 9.7262,-12.04322 22.76037,-25.61614 26.22137,-27.30518 51.89534,-61.86192 73.62711,-99.100868 l 14.28389,-24.476454 36.4304,-20.027403 c 20.03671,-11.015071 36.4304,-19.1309057 36.4304,-18.0351882 0,3.7203237 -35.63497,60.0867682 -52.45486,82.9716622 -25.03594,34.063561 -68.47811,74.503591 -127.54514,118.730941 -63.74746,47.73188 -83.75032,60.90275 -115.98377,76.36945 -43.4758,20.86115 -60.3442,18.6453 -117.31983,-15.41123 -38.50517,-23.01602 -51.82829,-29.47666 -68.52143,-33.22736 l -11.7572,-2.64167 -1.44243,57.47441 c -1.14951,45.80197 -2.9826,65.59797 -9.02609,97.4744 -6.28031,33.1254 -18.74885,85.8946 -26.32886,111.42857 -0.93299,3.14286 14.19932,-9.85937 33.62735,-28.89385 29.98777,-29.38035 37.91326,-35.57357 52.46654,-40.99906 53.63609,-19.99563 86.35277,-6.18286 163.21197,68.90697 32.27226,31.52932 35.39763,33.8388 45.71429,33.78034 6.09057,-0.0346 16.67843,-2.60594 23.5286,-5.71428 6.8502,-3.10834 13.23851,-5.65154 14.19629,-5.65154 0.95777,0 -5.93263,7.95494 -15.312,17.67765 l -17.05343,17.67766 21.22077,-18.39194 c 11.6714,-10.11557 29.37651,-26.6154 39.34466,-36.66632 9.96817,-10.05091 18.58068,-17.7652 19.13897,-17.14285 0.55828,0.62234 -11.79375,17.20294 -27.44895,36.8458 -15.6552,19.64285 -29.31708,37 -30.35971,38.57142 -7.04209,10.61343 -39.80877,35.50338 -58.88746,44.73158 -23.91511,11.56754 -41.78991,14.10885 -53.9104,7.66462 -3.4324,-1.82494 -19.09788,-16.43854 -34.81217,-32.47468 -27.77908,-28.348 -61.62063,-55.73354 -80.9286,-65.48966 -5.22503,-2.64014 -18.4036,-5.54671 -29.28571,-6.45903 -10.88215,-0.91231 -19.78089,-2.43657 -19.775,-3.38723 0.0171,-2.87582 11.58188,-21.01837 21.06548,-33.04888 12.51743,-15.87909 4.90735,-10.3844 -28.4974,20.57591 -15.86737,14.70629 -31.61737,28.6772 -34.99999,31.04649 -11.92673,8.3538 -5.97518,9.35608 7.42122,1.2498 20.6692,-12.50717 31.12123,-14.30689 24.24197,-4.17423 -1.15451,1.70051 -12.72551,10.4996 -25.71336,19.55357 -12.98784,9.05394 -24.71539,18.5912 -26.06123,21.19389 -1.34584,2.60268 -11.71894,34.30357 -23.05133,70.44643 C 82.978897,701.44623 71.693266,732.86223 51.044863,781.06663 35.461557,817.4464 -11.477414,907.13606 -29.899169,935.73217 l -12.008654,18.64106 -31.188946,11.82517 c -17.15392,6.50386 -33.520061,12.74834 -36.369201,13.87666 -3.46092,1.3706 -0.0351,-5.89635 10.321851,-21.8948 z M 105.63154,235.77414 c 2.31163,-1.46192 3.50349,-3.35752 2.64857,-4.21244 -0.85492,-0.85492 -4.03197,0.32 -7.06011,2.61093 -6.023929,4.55738 -2.363531,5.8862 4.41154,1.60151 z"
       id="path16"
       inkscape:connector-curvature="0"
       transform="scale(0.26458333)" />
    <path
       style="fill:#008000;fill-opacity:0.98645827;fill-rule:evenodd;stroke-width:2.85714293"
       d="m 780.13454,1000.9829 c -15.545,-2.57733 -40.1818,-14.59661 -78.79237,-38.43956 -24.10826,-14.88745 -79.99875,-40.50434 -110.68087,-50.72957 -34.10639,-11.3664 -44.43828,-11.80048 -85.93901,-3.61068 -34.49016,6.80631 -37.44861,7.92791 -49.00168,18.57714 -6.76246,6.23343 -17.8473,14.16588 -24.63296,17.62766 -16.53401,8.43502 -63.29618,25.7128 -64.99464,24.01434 -0.7445,-0.74452 1.66126,-4.56286 5.34615,-8.48523 3.68488,-3.92237 5.53818,-7.1316 4.11845,-7.1316 -1.41973,0 8.5763,-11.25 22.21341,-25 21.3909,-21.56797 27.48519,-30.10031 44.39291,-62.15246 10.77899,-20.43385 27.7534,-49.28103 37.72091,-64.10485 21.45825,-31.91298 30.4771,-51.00283 54.74929,-115.88555 l 18.17024,-48.57143 0.0263,-57.14285 c 0.0258,-55.56455 -0.23388,-58.12931 -9.40028,-92.85715 -10.09045,-38.2287 -18.97645,-56.91725 -46.86859,-98.57142 -23.09315,-34.48736 -42.66805,-54.25394 -59.84445,-60.43049 -9.73495,-3.50064 -12.88672,-5.87125 -10.93405,-8.22407 1.90584,-2.2964 0.35533,-4.39382 -5.07824,-6.86952 -7.65283,-3.48686 -6.9358,-4.01339 33.20569,-24.38352 l 41.02742,-20.81971 54.67378,25.67039 c 90.15478,42.32941 83.02784,40.70864 178.9595,40.69804 85.90637,-0.009 110.96057,-2.68275 148.36951,-15.83092 8.53177,-2.99869 16.0426,-4.92189 16.69072,-4.27378 0.64811,0.64811 -4.08246,4.65983 -10.51235,8.91494 -10.59737,7.013 -16.74951,13.13496 -8.11931,8.07948 25.4868,-14.92991 76.3776,-47.81992 75.44103,-48.75649 -0.67383,-0.67382 -5.54872,1.41077 -10.83309,4.63243 -12.80588,7.80722 -15.21111,7.39719 -9.02703,-1.53887 5.15729,-7.45234 79.80947,-46.00135 82.96777,-42.84304 4.1608,4.16077 -22.65031,29.27113 -51.50159,48.23466 C 833.64657,375.17505 791.06271,388.97501 655,390.28264 c -25.53571,0.24541 -46.42857,1.59903 -46.42857,3.00803 0,1.40901 3.12717,8.73301 6.94926,16.27556 3.8221,7.54254 11.00731,30.96408 15.96713,52.04787 8.75356,37.21063 8.98445,39.88333 7.87793,91.1913 -1.05016,48.69406 -1.73466,54.42411 -8.69092,72.7524 -4.15303,10.9424 -7.11272,20.33351 -6.57707,20.86917 0.53564,0.53563 8.47744,-7.51997 17.64844,-17.90134 18.572,-21.02312 16.99717,-20.1812 93.96809,-50.23694 72.59537,-28.34718 75.64928,-28.39366 141.42857,-2.15303 25.92857,10.3434 54.61585,20.4766 63.74951,22.5182 l 16.60666,3.712 -35.17809,35.40491 c -32.21023,32.41794 -35.91277,35.29183 -43.88631,34.06454 -4.78952,-0.7372 -30.35186,-9.96488 -56.8052,-20.50597 -26.45337,-10.54108 -55.99854,-20.51908 -65.65597,-22.17334 -20.95935,-3.59017 -33.32177,-0.38657 -99.95617,25.90251 l -42.55414,16.78878 -10.49706,26.90762 c -13.08222,33.53429 -16.3355,39.76783 -40.13802,76.90763 -21.74406,33.92792 -47.13769,82.85715 -43.00178,82.85715 1.50742,0 16.62747,-2.71818 33.6001,-6.04038 41.72838,-8.16785 54.78381,-7.7532 82.2879,2.61372 60.22257,22.69923 90.34897,36.877 151.78368,71.43091 28.28994,15.91163 42.77417,20.38943 66.30243,20.49732 l 15.22897,0.07 -26.65754,28.4948 c -29.50777,31.54144 -28.25652,31.03084 -62.23729,25.39694 z M 403.10091,946.24606 c 5.11474,-3.80377 3.94326,-3.58226 -4.52948,0.85654 -6.28572,3.293 -14.64286,8.6026 -18.57143,11.79909 -5.89725,4.79828 -5.10738,4.64891 4.52948,-0.85655 6.41979,-3.66757 14.77693,-8.97717 18.57143,-11.79908 z"
       id="path18"
       inkscape:connector-curvature="0"
       transform="scale(0.26458333)" />
    <path
       style="fill:#6c5d53;fill-opacity:0.98645827;fill-rule:evenodd;stroke-width:2.85714293"
       d="m 275.71429,975.98373 c -46.73681,-12.11778 -53.64732,-58.68424 -11.54678,-77.80786 40.37861,-18.34146 93.22308,12.10713 81.68544,47.06653 -7.42179,22.48823 -42.56396,37.89082 -70.13866,30.74133 z"
       id="path20"
       inkscape:connector-curvature="0"
       transform="scale(0.26458333)" />
    <path
       style="fill:#6c5d53;fill-opacity:0.98645827;fill-rule:evenodd;stroke-width:2.85714293"
       d="m -108.57143,976.99629 c 0,-0.7588 9.066442,-16.43509 20.147648,-34.83615 23.322351,-38.72831 63.256425,-116.79048 78.123399,-152.71377 C 2.8627057,757.6402 26.062646,689.45323 53.202351,602.8054 94.441294,471.14351 106.65497,420.42703 111.68785,359.94826 c 2.87224,-34.51492 2.0066,-97.25794 -1.38867,-100.65321 -0.6189,-0.61889 -15.53924,6.10362 -33.156323,14.93892 -17.617083,8.8353 -32.532677,15.56256 -33.145768,14.94947 -1.345518,-1.34552 29.295505,-43.60363 46.058497,-63.5209 6.612817,-7.85714 13.601654,-17.31365 15.530744,-21.01446 2.27393,-4.36235 14.10648,-11.7918 33.64526,-21.12527 l 30.1378,-14.39651 37.35415,0.57202 c 56.29672,0.8621 64.2248,3.10966 116.02397,32.89197 41.23712,23.7096 58.49429,30.21511 80.15158,30.21511 20.48697,0 49.14308,-9.99326 70.45214,-24.56879 29.0028,-19.83811 84.99737,-86.79804 115.92331,-138.624474 l 16.32457,-27.357122 33.0384,-17.934468 C 656.80863,14.456588 672.28066,6.9908162 673.01977,7.7299413 674.74774,9.4578925 635.8246,70.386568 619.19369,91.987079 579.7846,143.17231 455.97311,242.34623 389.01509,276.36181 c -28.48683,14.4717 -30.39946,15.01502 -52.85715,15.01502 -26.33354,0 -30.12734,-1.48485 -87.58651,-34.2803 -28.3246,-16.16657 -61.23429,-29.8521 -64.20163,-26.69832 -0.5064,0.53824 -2.318,29.90719 -4.02577,65.26433 -3.20729,66.40266 -8.4552,99.90372 -27.06357,172.76537 -4.00043,15.66383 -6.72542,29.02778 -6.05554,29.69766 0.66989,0.66989 14.83755,-11.50311 31.48371,-27.05111 16.64614,-15.54797 34.35363,-31.19872 39.34997,-34.7794 12.8948,-9.24123 34.22163,-14.9186 56.0314,-14.91597 32.88717,0.003 55.83026,14.48365 125.62457,79.28345 28.98932,26.91483 32.46003,29.28572 42.87103,29.28572 6.23046,0 14.80443,-1.32169 19.05323,-2.93709 4.2488,-1.6154 8.3062,-2.35597 9.01646,-1.64574 0.71022,0.71026 -4.28952,7.44563 -11.11055,14.96751 -15.50151,17.09432 -5.25883,9.46615 28.73703,-21.40168 12.73074,-11.55935 23.1468,-20.18686 23.1468,-19.17226 0,1.0146 -11.5688,16.45571 -25.70843,34.31363 -34.37745,43.41763 -68.48011,68.76874 -102.25157,76.01143 -9.6114,2.06125 -16.26611,2.05943 -21.69857,-0.006 -4.30954,-1.63848 -22.88917,-17.44511 -41.28809,-35.12585 -35.51205,-34.12589 -64.76231,-57.65223 -79.37531,-63.84255 -4.8914,-2.07205 -16.95451,-5.0656 -26.80694,-6.65228 -9.85246,-1.58669 -18.58103,-3.5524 -19.39686,-4.3682 -0.81583,-0.81583 3.53303,-8.87509 9.66409,-17.90946 17.02074,-25.08071 16.7786,-24.60171 10.71608,-21.19729 -2.90563,1.63169 -16.24717,12.99506 -29.64786,25.25198 -13.40068,12.25691 -28.66927,25.87382 -33.93019,30.25985 -13.67702,11.40249 -8.30997,13.3386 9.80769,3.53803 16.65559,-9.00968 25.03522,-7.64074 11.88153,1.94106 -4.41318,3.21477 -16.54817,12.4314 -26.96664,20.4814 l -18.94267,14.63608 -19.60836,61.42858 c -37.708801,118.13342 -55.055513,161.17093 -97.767393,242.5629 -40.125697,76.46372 -49.539563,90.86875 -62.90704,96.26003 -25.491737,10.28112 -55.773467,20.95209 -55.773467,19.65395 z M 107.26034,235.47245 c 3.35037,-5.42101 -1.53605,-6.75868 -6.51204,-1.7827 -4.45412,4.45412 -4.461946,4.82994 -0.10059,4.82994 2.60113,0 5.57682,-1.37126 6.61263,-3.04724 z"
       id="path22"
       inkscape:connector-curvature="0"
       transform="scale(0.26458333)" />
    <path
       style="fill:#24221c;fill-opacity:0.98645827;fill-rule:evenodd;stroke-width:2.85714293"
       d="M 766.86197,995.925 C 758.85031,993.03989 737.2184,982.0226 718.791,971.44211 650.46146,932.20929 575.22112,901.37683 547.81091,901.37683 c -13.97868,0 -54.58442,6.90423 -70.64341,12.01154 -5.48644,1.74489 -17.91936,9.26129 -27.62871,16.70309 -11.21071,8.59254 -28.60676,17.81314 -47.66648,25.26511 -16.5072,6.454 -30.79809,11.73454 -31.75752,11.73454 -3.88063,0 5.69508,-12.96368 29.29748,-39.6632 13.6804,-15.47554 30.54445,-38.27508 37.47568,-50.66562 6.93122,-12.39058 21.6727,-37.31403 32.75882,-55.38546 29.09725,-47.43126 46.58133,-83.49526 67.1013,-138.40826 l 18.08927,-48.40823 -1.30288,-60.1632 c -1.17324,-54.17735 -2.06172,-62.86369 -8.93004,-87.30603 -9.41533,-33.50637 -22.06806,-60.68123 -43.17949,-92.7386 -21.29512,-32.33632 -44.81647,-57.41668 -62.02648,-66.13765 -7.64262,-3.87281 -13.12373,-8.29049 -12.18026,-9.81707 0.94348,-1.52658 -0.29464,-3.54694 -2.75138,-4.48968 C 422.01006,312.96537 420,311.03982 420,309.62912 c 0,-1.41071 17.03571,-11.04828 37.85714,-21.41684 l 37.85715,-18.85192 52.85714,24.81163 c 83.11745,39.0161 84.35867,39.33864 157.27543,40.86847 71.0682,1.49105 128.09874,-2.45964 154.36874,-10.69364 24.53069,-7.68885 28.87851,-7.39818 18.35583,1.22716 -9.29489,7.61892 -7.95612,9.61213 2.24337,3.34003 30.21406,-18.57991 70.57131,-45.67488 69.55111,-46.69507 -0.69488,-0.6949 -5.35957,0.85472 -10.36591,3.4436 -14.59517,7.54746 -13.37377,2.53634 1.71397,-7.03202 20.74954,-13.15899 66.77793,-35.42841 68.88063,-33.32576 7.4377,7.43767 -83.28406,70.89649 -147.17743,102.94893 -57.13351,28.66135 -99.33537,37.49652 -194.25374,40.66802 -31.87804,1.06513 -58.63563,3.02969 -59.46132,4.36569 -0.82569,1.33599 1.79688,10.67312 5.82793,20.74917 4.03106,10.07605 10.75201,32.24248 14.93545,49.25874 7.0116,28.51984 7.56429,35.12174 7.06939,84.44363 -0.5335,53.16846 -1.59201,60.50632 -13.86512,96.1164 -0.88417,2.5654 7.24986,-3.88551 18.07561,-14.33534 22.9892,-22.19089 26.62543,-24.139 92.54034,-49.579 70.23692,-27.10811 75.72903,-27.33869 134.28572,-5.63817 24.35714,9.02648 53.84,19.2846 65.51746,22.7958 l 21.23174,6.38397 -33.57363,33.23283 c -23.73234,23.49143 -35.54569,33.23283 -40.30137,33.23283 -3.70029,0 -29.63566,-8.49017 -57.63417,-18.86709 -62.78329,-23.26891 -75.81,-26.24871 -96.12375,-21.98786 -8.34317,1.75 -37.67542,11.86346 -65.1828,22.47435 l -50.0134,19.29251 -11.19882,28.82974 c -6.15935,15.85638 -21.3288,45.54406 -33.7099,65.97263 -26.68704,44.03312 -51.32299,90.06932 -49.28863,92.10369 0.79758,0.79757 19.05061,-1.45597 40.5623,-5.00789 33.21374,-5.48411 41.312,-5.95891 53.69927,-3.14828 23.35259,5.29863 79.99824,28.60165 121.72998,50.07763 21.21429,10.91725 49.89403,25.66848 63.73275,32.78045 21.41448,11.00529 28.40914,13.1632 46.97143,14.4912 l 21.81008,1.56035 -25.54286,26.44794 -25.54282,26.44797 -17.14286,-0.1226 c -9.42857,-0.067 -23.69783,-2.48297 -31.70946,-5.36811 z M 393.19172,953.88686 c 7.02938,-4.11952 12.13783,-8.13286 11.35212,-8.91857 -1.48477,-1.48478 -27.40098,12.7974 -27.40098,15.1004 0,2.53994 3.40289,1.2292 16.04886,-6.18183 z"
       id="path24"
       inkscape:connector-curvature="0"
       transform="scale(0.26458333)" />
    <path
       style="fill:#24221c;fill-opacity:0.98645827;fill-rule:evenodd;stroke-width:2.85714293"
       d="m -105.71429,975.13594 c 0,-0.62588 10.981426,-20.37057 24.403164,-43.87711 50.619,-88.65297 78.4611203,-152.06874 112.217255,-255.59629 43.220734,-132.55477 67.36046,-218.48265 76.653771,-272.85714 4.97371,-29.1008 7.52521,-138.68246 3.32749,-142.90873 -1.08336,-1.09073 -15.746079,4.59766 -32.583819,12.64087 -16.83774,8.04322 -31.022754,14.21535 -31.522254,13.71585 -0.830757,-0.83076 16.066492,-23.81859 51.169923,-69.61401 11.6941,-15.25595 17.2513,-19.52831 41.80921,-32.14285 27.77765,-14.26841 28.80812,-14.54786 53.56675,-14.52659 13.88431,0.012 36.1728,1.23679 49.52994,2.72191 22.78615,2.5335 27.6906,4.42866 79.42857,30.6926 l 55.14286,27.99238 h 26.28572 c 24.55677,0 27.78637,-0.71646 49.10068,-10.89264 18.90017,-9.02359 27.4942,-15.642 50.08509,-38.57143 30.54283,-31.00053 62.79748,-72.61229 87.29437,-112.618515 l 16.3762,-26.744206 31.19988,-16.57758 C 654.93049,16.85479 669.5512,9.9756448 670.26103,10.68547 c 0.70983,0.709824 -11.41512,20.441477 -26.94429,43.848118 -23.7664,35.822366 -33.86105,47.983592 -63.78534,76.843242 -58.86126,56.76712 -139.34837,117.15544 -192.53997,144.45993 l -28.72283,14.74411 -24.24694,-1.03059 c -20.26609,-0.86139 -27.04297,-2.47415 -41.27717,-9.82312 -9.3666,-4.83589 -34.81478,-18.01446 -56.55149,-29.28572 -21.73669,-11.27125 -42.50957,-20.49318 -46.16191,-20.49318 -6.37238,0 -6.71335,1.12539 -8.43955,27.85714 -7.17577,111.12183 -9.29333,127.13949 -26.1206,197.58203 -5.40689,22.63437 -9.20111,41.78303 -8.4316,42.55254 0.76951,0.76952 11.24594,-7.46383 23.28096,-18.29628 57.02036,-51.32292 66.17776,-56.34966 102.6685,-56.35769 32.87049,-0.009 55.64726,13.63854 118.43977,70.95829 40.094,36.59954 40.3152,36.72811 60.09509,34.93454 l 17.10271,-1.55083 -9.23206,11.65643 c -11.81805,14.92151 -4.7382,10.89877 20.3486,-11.562 10.91875,-9.7758 20.66135,-17.77417 21.65023,-17.77417 3.14892,0 -23.40357,32.92717 -40.80274,50.59857 -29.3662,29.82568 -63.90537,49.19374 -87.97686,49.3336 -10.94705,0.0637 -14.05311,-2.08794 -50,-34.63503 -65.19888,-59.03249 -74.91168,-65.54043 -106.50348,-71.36146 -10.43197,-1.92217 -18.9672,-4.64808 -18.9672,-6.05763 0,-1.40951 3.66685,-7.93728 8.14857,-14.50611 10.97914,-16.09211 15.39328,-24.80051 12.57097,-24.80051 -2.96514,0 -73.24747,62.03728 -74.52907,65.78582 -1.43698,4.20303 3.12542,3.39883 17.9695,-3.16742 7.40179,-3.27415 14.01123,-5.39958 14.68766,-4.72315 0.67642,0.67643 -10.00524,9.85937 -23.73704,20.40655 l -24.96692,19.17668 -27.52509,83.40363 c -32.96492,99.88677 -45.626891,131.34431 -81.09998,201.48554 -32.815797,64.88697 -50.725354,96.42915 -60.610794,106.74735 -4.279137,4.46645 -17.347306,11.3954 -30.615466,16.23282 -12.732217,4.64203 -25.399486,9.33249 -28.14949,10.42323 -2.75,1.09075 -5,1.47109 -5,0.8452 z M 107.26034,235.47245 c 3.35037,-5.42101 -1.53605,-6.75868 -6.51204,-1.7827 -4.45412,4.45412 -4.461946,4.82994 -0.10059,4.82994 2.60113,0 5.57682,-1.37126 6.61263,-3.04724 z"
       id="path26"
       inkscape:connector-curvature="0"
       transform="scale(0.26458333)" />
    <path
       style="fill:#24221c;fill-opacity:0.98645827;fill-rule:evenodd;stroke-width:2.85714293"
       d="m 262.77132,969.23397 c -14.00668,-7.07596 -25.62846,-21.97153 -25.62846,-32.84787 0,-11.1011 7.75705,-24.43732 18.44423,-31.71004 24.2632,-16.51131 56.29106,-13.84233 77.47589,6.4563 10.93023,10.47301 12.65131,13.71363 12.65131,23.82121 0,31.89696 -48.21519,51.82434 -82.94297,34.2804 z"
       id="path29"
       inkscape:connector-curvature="0"
       transform="scale(0.26458333)" />
  </g>
</svg>
