<?xml version="1.0" encoding="UTF-8" standalone="no"?>
<!-- Created with Inkscape (http://www.inkscape.org/) -->

<svg
   xmlns:dc="http://purl.org/dc/elements/1.1/"
   xmlns:cc="http://creativecommons.org/ns#"
   xmlns:rdf="http://www.w3.org/1999/02/22-rdf-syntax-ns#"
   xmlns:svg="http://www.w3.org/2000/svg"
   xmlns="http://www.w3.org/2000/svg"
   xmlns:xlink="http://www.w3.org/1999/xlink"
   xmlns:sodipodi="http://sodipodi.sourceforge.net/DTD/sodipodi-0.dtd"
   xmlns:inkscape="http://www.inkscape.org/namespaces/inkscape"
   width="210mm"
   height="297mm"
   viewBox="0 0 210 297"
   version="1.1"
   id="svg8"
   inkscape:version="0.92.1 r15371"
   sodipodi:docname="logo2.svg">
  <defs
     id="defs2">
    <linearGradient
       inkscape:collect="always"
       id="linearGradient57">
      <stop
         style="stop-color:#d7d7ff;stop-opacity:1;"
         offset="0"
         id="stop53" />
      <stop
         style="stop-color:#d7d7ff;stop-opacity:0;"
         offset="1"
         id="stop55" />
    </linearGradient>
    <linearGradient
       inkscape:collect="always"
       id="linearGradient68">
      <stop
         style="stop-color:#d4aa00;stop-opacity:1;"
         offset="0"
         id="stop64" />
      <stop
         style="stop-color:#d4aa00;stop-opacity:0;"
         offset="1"
         id="stop66" />
    </linearGradient>
    <linearGradient
       inkscape:collect="always"
       id="linearGradient60">
      <stop
         style="stop-color:#d4aa00;stop-opacity:1;"
         offset="0"
         id="stop56" />
      <stop
         style="stop-color:#d4aa00;stop-opacity:0;"
         offset="1"
         id="stop58" />
    </linearGradient>
    <inkscape:perspective
       sodipodi:type="inkscape:persp3d"
       inkscape:vp_x="130.08182 : 159.77376 : 1"
       inkscape:vp_y="5.5331433 : 999.99283 : 0"
       inkscape:vp_z="396.00804 : 159.08489 : 1"
       inkscape:persp3d-origin="262.77104 : 109.92968 : 1"
       id="perspective14" />
    <linearGradient
       inkscape:collect="always"
       xlink:href="#linearGradient60"
       id="linearGradient62"
       x1="508.57144"
       y1="1088.234"
       x2="457.14285"
       y2="213.94826"
       gradientUnits="userSpaceOnUse"
       gradientTransform="matrix(0.40360253,0,0,0.26814841,-65.388753,-2.1111302)" />
    <linearGradient
       inkscape:collect="always"
       xlink:href="#linearGradient68"
       id="linearGradient70"
       x1="431.42859"
       y1="65.376831"
       x2="460"
       y2="696.80542"
       gradientUnits="userSpaceOnUse"
       gradientTransform="matrix(0.39162356,0,0,0.26458333,-50.255831,0)" />
    <radialGradient
       inkscape:collect="always"
       xlink:href="#linearGradient57"
       id="radialGradient59"
       cx="46.113094"
       cy="142.85907"
       fx="46.113094"
       fy="142.85907"
       r="28.16794"
       gradientTransform="matrix(-10.550938,-0.8587943,0.3494464,-2.0099425,454.00984,470.28184)"
       gradientUnits="userSpaceOnUse" />
  </defs>
  <sodipodi:namedview
     id="base"
     pagecolor="#ffffff"
     bordercolor="#666666"
     borderopacity="1.0"
     inkscape:pageopacity="0.0"
     inkscape:pageshadow="2"
     inkscape:zoom="0.35"
     inkscape:cx="400"
     inkscape:cy="672.01237"
     inkscape:document-units="mm"
     inkscape:current-layer="layer1"
     showgrid="false"
     inkscape:window-width="1600"
     inkscape:window-height="837"
     inkscape:window-x="-8"
     inkscape:window-y="-8"
     inkscape:window-maximized="1" />
  <metadata
     id="metadata5">
    <rdf:RDF>
      <cc:Work
         rdf:about="">
        <dc:format>image/svg+xml</dc:format>
        <dc:type
           rdf:resource="http://purl.org/dc/dcmitype/StillImage" />
        <dc:title />
      </cc:Work>
    </rdf:RDF>
  </metadata>
  <g
     inkscape:label="Capa 1"
     inkscape:groupmode="layer"
     id="layer1">
    <g
       sodipodi:type="inkscape:box3d"
       id="g16"
       style="fill:#d4aa00"
       inkscape:perspectiveID="#perspective14"
       inkscape:corner0="0.29810879 : 0.1189245 : 0 : 1"
       inkscape:corner7="-2.3617416 : -0.0078485882 : 0.25 : 1">
      <path
         sodipodi:type="inkscape:box3dside"
         id="path18"
         style="fill:#353564;fill-rule:evenodd;stroke:none;stroke-width:1.12531078;stroke-linejoin:round"
         inkscape:box3dsidetype="6"
         d="m 232.80607,84.010701 -0.54036,97.659129 26.44231,-7.06583 0.45311,-81.888418 z"
         points="232.26571,181.66983 258.70802,174.604 259.16113,92.715582 232.80607,84.010701 " />
      <path
         sodipodi:type="inkscape:box3dside"
         id="path22"
         style="fill:#8686bf;fill-rule:evenodd;stroke:none;stroke-width:1.12531078;stroke-linejoin:round"
         inkscape:box3dsidetype="3"
         d="M 232.80607,84.010701 32.157775,187.95508 32.67289,94.859462 232.26571,181.66983 Z"
         points="32.157775,187.95508 32.67289,94.859462 232.26571,181.66983 232.80607,84.010701 " />
      <path
         sodipodi:type="inkscape:box3dside"
         id="path20"
         style="fill:#4d4d9f;fill-rule:evenodd;stroke:none;stroke-width:1.12531078;stroke-linejoin:round"
         inkscape:box3dsidetype="5"
         d="M 232.80607,84.010701 32.157775,187.95508 -49.662108,199.20769 259.16113,92.715582 Z"
         points="32.157775,187.95508 -49.662108,199.20769 259.16113,92.715582 232.80607,84.010701 " />
      <path
         sodipodi:type="inkscape:box3dside"
         id="path28"
         style="fill:#e9e9ff;fill-rule:evenodd;stroke:none;stroke-width:1.12531078;stroke-linejoin:round"
         inkscape:box3dsidetype="11"
         d="M 259.16113,92.715582 -49.662108,199.20769 -49.031158,85.177434 258.70802,174.604 Z"
         points="-49.662108,199.20769 -49.031158,85.177434 258.70802,174.604 259.16113,92.715582 " />
      <path
         sodipodi:type="inkscape:box3dside"
         id="path26"
         style="fill:#afafde;fill-rule:evenodd;stroke:none;stroke-width:1.12531078;stroke-linejoin:round"
         inkscape:box3dsidetype="13"
         d="M 232.26571,181.66983 32.67289,94.859462 -49.031158,85.177434 258.70802,174.604 Z"
         points="32.67289,94.859462 -49.031158,85.177434 258.70802,174.604 232.26571,181.66983 " />
      <path
         sodipodi:type="inkscape:box3dside"
         id="path24"
         style="fill:url(#radialGradient59);fill-opacity:1;fill-rule:evenodd;stroke:none;stroke-width:1.12531078;stroke-linejoin:round"
         inkscape:box3dsidetype="14"
         d="M 32.157775,187.95508 32.67289,94.859462 -49.031158,85.177434 -49.662108,199.20769 Z"
         points="32.67289,94.859462 -49.031158,85.177434 -49.662108,199.20769 32.157775,187.95508 " />
    </g>
    <path
       style="fill:none;stroke:#000000;stroke-width:0.26458332px;stroke-linecap:butt;stroke-linejoin:miter;stroke-opacity:1"
       d="m 326.57142,169.24404 3.77976,-19.65476"
       id="path44"
       inkscape:connector-curvature="0" />
    <path
       style="fill:none;stroke:#000000;stroke-width:0.26458332px;stroke-linecap:butt;stroke-linejoin:miter;stroke-opacity:1"
       d="M 2.2678571,293.22024 0,-0.84523809 210.15476,0.66666665 211.66666,296.24403 Z"
       id="path48"
       inkscape:connector-curvature="0" />
    <path
       style="fill:url(#linearGradient62);fill-opacity:1;stroke-width:0.93993217"
       d="m 81.726386,296.01692 c -77.9619143,-0.78649 -142.048228,-1.62874 -142.414027,-1.87168 -0.365798,-0.24294 -0.665087,-21.50923 -0.665087,-47.25837 v -46.81666 l 41.194456,-5.58451 41.194458,-5.58451 41.832351,-21.20735 c 23.007791,-11.66406 45.855173,-23.26433 50.771953,-25.77837 l 8.93963,-4.57101 27.96119,11.6944 c 15.37865,6.43191 39.43355,16.48956 53.45534,22.35033 l 25.49418,10.65594 9.10032,-2.41872 c 5.00518,-1.33031 11.04627,-2.88229 13.42464,-3.44885 l 4.32431,-1.03012 v 61.25708 61.25709 l -16.4324,-0.10737 c -9.0378,-0.059 -80.21941,-0.75087 -158.181314,-1.53732 z"
       id="path50"
       inkscape:connector-curvature="0" />
    <path
       style="fill:url(#linearGradient70);fill-opacity:1;stroke-width:0.91970301"
       d="M 81.966713,115.47903 33.48296,94.733948 -6.9617439,90.139466 c -22.9775071,-2.61022 -40.8109781,-4.983692 -41.2927991,-5.49569 -0.466452,-0.49567 -0.855805,-19.909191 -0.865229,-43.141161 l -0.01713,-42.23994233 42.2394005,0.47028536 C 16.33416,-0.008385 85.741549,0.4187423 147.34113,0.6821298 l 111.99924,0.4788864 0.72946,15.2104148 c 0.78945,16.461185 1.01702,74.552675 0.29206,74.552675 -0.24381,0 -5.83238,-1.700135 -12.41904,-3.778083 -6.58666,-2.077947 -12.52894,-3.547102 -13.20507,-3.264784 -0.67615,0.282319 -23.61562,12.063601 -50.97664,26.180631 -27.36101,14.11702 -50.54906,25.77868 -51.52897,25.91478 -0.97994,0.13611 -23.59939,-9.08781 -50.265457,-20.49762 z"
       id="path52"
       inkscape:connector-curvature="0" />
    <path
       style="fill:#ffd42a;fill-rule:evenodd;stroke-width:2.85714293"
       d="m 242.95406,660.25857 c -6.33902,-9.49275 -11.52549,-18.39432 -11.52549,-19.78126 0,-1.38694 36.18069,-20.62097 80.40153,-42.74229 72.61943,-36.32761 80.83015,-39.79194 84.82993,-35.79216 2.43562,2.43562 3.86208,4.92407 3.1699,5.52989 -0.69218,0.60582 -33.67917,25.61386 -73.30444,55.57343 l -72.04594,54.47195 z"
       id="path32"
       inkscape:connector-curvature="0"
       transform="scale(0.26458333)" />
    <path
       style="fill:#ffd42a;fill-rule:evenodd;stroke-width:2.85714293"
       d="m 320,457.30446 c -33.78571,-14.35796 -61.84128,-26.39517 -62.3457,-26.74935 -1.55076,-1.08886 17.91733,-29.65606 20.24741,-29.71075 1.63119,-0.0383 107.49705,65.64755 113.07345,70.15788 2.25339,1.82259 -3.07122,12.63789 -6.1677,12.52777 C 382.94907,483.46392 353.78571,471.66242 320,457.30446 Z"
       id="path34"
       inkscape:connector-curvature="0"
       transform="scale(0.26458333)" />
    <path
       style="fill:#ffd42a;fill-rule:evenodd;stroke-width:2.85714293"
       d="m 234.28571,420.66538 -18.57142,-7.95484 -0.82151,-25.95875 c -0.45182,-14.27732 -0.1403,-25.95876 0.69227,-25.95876 0.83258,0 14.0594,7.95307 29.39294,17.6735 15.33353,9.72042 28.23481,17.8975 28.6695,18.17129 0.62592,0.39424 -18.6134,30.31824 -20.34275,31.64023 -0.24618,0.18819 -8.80474,-3.23752 -19.01903,-7.61267 z"
       id="path36"
       inkscape:connector-curvature="0"
       transform="scale(0.26458333)" />
    <path
       style="fill:#ffd42a;fill-rule:evenodd;stroke-width:2.85714293"
       d="m 612.04397,426.8456 -8.9124,-11.0903 64.37816,-48.77267 64.37817,-48.77268 20.97536,10.37888 C 772.42338,338.26744 780,345.90718 780,355.95163 c 0,2.59147 -153.10912,81.98426 -158.10678,81.98426 -0.51527,0 -4.94743,-4.99063 -9.84925,-11.09029 z"
       id="path38"
       inkscape:connector-curvature="0"
       transform="scale(0.26458333)" />
    <path
       style="fill:#ffd42a;fill-rule:evenodd;stroke-width:2.85714293"
       d="m 490.14286,501.24387 c 1.49285,-1.32347 26.75962,-20.52788 56.14837,-42.67647 l 53.43409,-40.27016 8.70877,9.91874 c 4.78982,5.45531 8.70877,10.51127 8.70877,11.23547 0,1.52575 -124.65477,64.19872 -127.68945,64.19872 -1.11366,0 -0.80341,-1.08283 0.68945,-2.4063 z"
       id="path40"
       inkscape:connector-curvature="0"
       transform="scale(0.26458333)" />
    <path
       style="fill:#ffd42a;fill-rule:evenodd;stroke-width:2.85714293"
       d="m 670,647.73345 c -23.57143,-14.96199 -48.994,-31.00794 -56.49459,-35.65766 -13.5127,-8.37671 -13.5986,-8.52579 -9.39026,-16.29697 2.33595,-4.31362 5.33684,-9.45402 6.66863,-11.42314 2.28323,-3.37584 14.28959,1.28469 117.78765,45.72187 3.92857,1.68674 8.10714,2.85918 9.28571,2.60543 4.78959,-1.03124 1.52088,7.23774 -9.62131,24.33943 -6.47029,9.93098 -12.57743,18.02446 -13.57142,17.9855 -0.994,-0.039 -21.09298,-12.31247 -44.66441,-27.27446 z"
       id="path42"
       inkscape:connector-curvature="0"
       transform="scale(0.26458333)" />
    <path
       style="fill:#ffd42a;fill-rule:evenodd;stroke-width:2.85714293"
       d="m 537.75271,564.36446 c -31.74877,-20.03572 -57.73127,-37.24843 -57.73888,-38.25047 -0.0124,-1.63433 125.2684,50.43745 128.05635,53.22541 1.0074,1.0074 -10.42235,21.45363 -11.9929,21.45363 -0.32974,0 -26.57579,-16.39286 -58.32457,-36.42857 z"
       id="path45"
       inkscape:connector-curvature="0"
       transform="scale(0.26458333)" />
    <path
       style="fill:#ffd42a;fill-rule:evenodd;stroke-width:2.85714293"
       d="m 214.28571,676.77646 c 0,-27.8286 0.45681,-30.31257 6.13326,-33.35051 4.88674,-2.61531 6.60621,-2.43729 8.46036,0.87588 1.2799,2.28706 6.87708,10.91954 12.43817,19.18329 5.56109,8.26374 10.11107,15.38418 10.11107,15.82318 0,0.89261 -27.99728,22.07979 -33.57143,25.40546 -2.76588,1.65019 -3.57143,-4.65116 -3.57143,-27.9373 z"
       id="path47"
       inkscape:connector-curvature="0"
       transform="scale(0.26458333)" />
    <path
       style="fill:#ffd42a;fill-rule:evenodd;stroke-width:2.85714293"
       d="m 398.88951,559.95035 c -4.18215,-3.05805 -1.95739,-4.92802 17.05614,-14.33617 12.0261,-5.95067 22.39217,-10.29285 23.03572,-9.6493 1.0129,1.0129 -23.20321,20.33008 -32.13188,25.63159 -1.73278,1.02886 -5.31477,0.28811 -7.95998,-1.64612 z"
       id="path49"
       inkscape:connector-curvature="0"
       transform="scale(0.26458333)" />
    <path
       style="fill:#ffcc00;fill-opacity:0;fill-rule:evenodd;stroke-width:2.85714293"
       d="m 724.06369,681.70594 c -4.39691,-3.21509 -4.74452,-4.81294 -1.92466,-8.84691 1.89278,-2.70773 7.6501,-11.6434 12.79405,-19.85704 6.48144,-10.3493 10.66832,-14.41116 13.63835,-13.23112 2.35714,0.93653 5.89286,1.76393 7.85714,1.83866 1.96429,0.0747 3.57143,1.06793 3.57143,2.2071 0,2.1291 14.02535,6.85458 17.85714,6.01651 1.17857,-0.25778 2.14286,0.67765 2.14286,2.07872 0,1.40108 3.366,3.39222 7.48,4.42477 4.11399,1.03255 6.83754,2.51981 6.05232,3.30503 -0.78523,0.78523 -15.52953,6.95376 -32.76511,13.70787 -27.54159,10.79271 -31.98743,11.80491 -36.70352,8.35641 z"
       id="path121"
       inkscape:connector-curvature="0"
       transform="scale(0.26458333)" />
    <path
       style="fill:#ffcc00;fill-opacity:0;fill-rule:evenodd;stroke-width:2.85714293"
       d="m 724.06369,681.70594 c -4.39691,-3.21509 -4.74452,-4.81294 -1.92466,-8.84691 1.89278,-2.70773 7.6501,-11.6434 12.79405,-19.85704 6.48144,-10.3493 10.66832,-14.41116 13.63835,-13.23112 2.35714,0.93653 5.89286,1.76393 7.85714,1.83866 1.96429,0.0747 3.57143,1.06793 3.57143,2.2071 0,2.1291 14.02535,6.85458 17.85714,6.01651 1.17857,-0.25778 2.14286,0.67765 2.14286,2.07872 0,1.40108 3.366,3.39222 7.48,4.42477 4.11399,1.03255 6.83754,2.51981 6.05232,3.30503 -0.78523,0.78523 -15.52953,6.95376 -32.76511,13.70787 -27.54159,10.79271 -31.98743,11.80491 -36.70352,8.35641 z"
       id="path123"
       inkscape:connector-curvature="0"
       transform="scale(0.26458333)" />
    <path
       style="fill:#ffcc00;fill-opacity:0;fill-rule:evenodd;stroke-width:2.85714293"
       d="m 724.06369,681.70594 c -4.39691,-3.21509 -4.74452,-4.81294 -1.92466,-8.84691 1.89278,-2.70773 7.6501,-11.6434 12.79405,-19.85704 6.48144,-10.3493 10.66832,-14.41116 13.63835,-13.23112 2.35714,0.93653 5.89286,1.76393 7.85714,1.83866 1.96429,0.0747 3.57143,1.06793 3.57143,2.2071 0,2.1291 14.02535,6.85458 17.85714,6.01651 1.17857,-0.25778 2.14286,0.67765 2.14286,2.07872 0,1.40108 3.366,3.39222 7.48,4.42477 4.11399,1.03255 6.83754,2.51981 6.05232,3.30503 -0.78523,0.78523 -15.52953,6.95376 -32.76511,13.70787 -27.54159,10.79271 -31.98743,11.80491 -36.70352,8.35641 z"
       id="path125"
       inkscape:connector-curvature="0"
       transform="scale(0.26458333)" />
    <path
       style="fill:#ffcc00;fill-opacity:0;fill-rule:evenodd;stroke-width:2.85714293"
       d="m 387.21623,543.79206 c -5.03009,-9.72712 -5.74474,-35.3143 -1.33929,-47.95177 l 3.01979,-8.6626 37.19911,15.95974 37.19911,15.95973 -32.36176,16.41468 c -17.79897,9.02807 -33.93589,16.48107 -35.85982,16.56222 -1.92393,0.0811 -5.45964,-3.64575 -7.85714,-8.282 z"
       id="path127"
       inkscape:connector-curvature="0"
       transform="scale(0.26458333)" />
    <path
       style="fill:#ffd42a;fill-opacity:0;fill-rule:evenodd;stroke-width:2.85714293"
       d="m 419.34889,499.77296 c -19.4062,-8.26483 -27.81303,-13.29511 -27.85714,-16.66845 -0.12629,-9.6582 6.00443,-7.93357 33.42584,9.40297 32.52588,20.56371 31.49602,19.80293 26.27289,19.40834 -2.22619,-0.16818 -16.55491,-5.63247 -31.84159,-12.14286 z"
       id="path129"
       inkscape:connector-curvature="0"
       transform="scale(0.26458333)" />
    <path
       style="fill:#ffd42a;fill-opacity:0;fill-rule:evenodd;stroke-width:2.85714293"
       d="m 724.06369,681.70594 c -4.39691,-3.21509 -4.74452,-4.81294 -1.92466,-8.84691 1.89278,-2.70773 7.6501,-11.6434 12.79405,-19.85704 6.48144,-10.3493 10.66832,-14.41116 13.63835,-13.23112 2.35714,0.93653 5.89286,1.76393 7.85714,1.83866 1.96429,0.0747 3.57143,1.06793 3.57143,2.2071 0,2.1291 14.02535,6.85458 17.85714,6.01651 1.17857,-0.25778 2.14286,0.67765 2.14286,2.07872 0,1.40108 3.366,3.39222 7.48,4.42477 4.11399,1.03255 6.83754,2.51981 6.05232,3.30503 -0.78523,0.78523 -15.52953,6.95376 -32.76511,13.70787 -27.54159,10.79271 -31.98743,11.80491 -36.70352,8.35641 z"
       id="path131"
       inkscape:connector-curvature="0"
       transform="scale(0.26458333)" />
    <path
       style="fill:#ffd42a;fill-opacity:0;fill-rule:evenodd;stroke-width:2.85714293"
       d="m 724.06369,681.70594 c -4.39691,-3.21509 -4.74452,-4.81294 -1.92466,-8.84691 1.89278,-2.70773 7.6501,-11.6434 12.79405,-19.85704 6.48144,-10.3493 10.66832,-14.41116 13.63835,-13.23112 2.35714,0.93653 5.89286,1.76393 7.85714,1.83866 1.96429,0.0747 3.57143,1.06793 3.57143,2.2071 0,2.1291 14.02535,6.85458 17.85714,6.01651 1.17857,-0.25778 2.14286,0.67765 2.14286,2.07872 0,1.40108 3.366,3.39222 7.48,4.42477 4.11399,1.03255 6.83754,2.51981 6.05232,3.30503 -0.78523,0.78523 -15.52953,6.95376 -32.76511,13.70787 -27.54159,10.79271 -31.98743,11.80491 -36.70352,8.35641 z"
       id="path133"
       inkscape:connector-curvature="0"
       transform="scale(0.26458333)" />
    <path
       style="fill:#ffd42a;fill-opacity:0;fill-rule:evenodd;stroke-width:2.85714293"
       d="m 679.16473,607.93477 c -34.24511,-14.53723 -62.81312,-26.9806 -63.48446,-27.65194 -0.67134,-0.67135 2.78741,-11.43833 7.68612,-23.92664 7.24902,-18.47997 9.16146,-28.1055 10.27532,-51.71671 1.31547,-27.88488 0.0744,-35.71355 -9.30706,-58.70989 -1.65409,-4.05459 11.37237,-11.54495 78.32548,-45.03801 l 80.30955,-40.17456 2.81775,7.41124 c 7.72952,20.33019 8.9558,34.62986 7.85638,91.61308 -1.1243,58.27204 -1.35967,60.23704 -10.38706,86.7158 -9.50605,27.88277 -30.97767,75.03895 -37.91317,83.26528 -3.5492,4.20977 -9.73279,2.17399 -66.17885,-21.78765 z"
       id="path135"
       inkscape:connector-curvature="0"
       transform="scale(0.26458333)" />
    <path
       style="fill:#ff0000;fill-opacity:0;fill-rule:evenodd;stroke-width:2.85714293"
       d="m 724.06369,681.70594 c -4.39691,-3.21509 -4.74452,-4.81294 -1.92466,-8.84691 1.89278,-2.70773 7.6501,-11.6434 12.79405,-19.85704 6.48144,-10.3493 10.66832,-14.41116 13.63835,-13.23112 2.35714,0.93653 5.89286,1.76393 7.85714,1.83866 1.96429,0.0747 3.57143,1.06793 3.57143,2.2071 0,2.1291 14.02535,6.85458 17.85714,6.01651 1.17857,-0.25778 2.14286,0.67765 2.14286,2.07872 0,1.40108 3.366,3.39222 7.48,4.42477 4.11399,1.03255 6.83754,2.51981 6.05232,3.30503 -0.78523,0.78523 -15.52953,6.95376 -32.76511,13.70787 -27.54159,10.79271 -31.98743,11.80491 -36.70352,8.35641 z"
       id="path137"
       inkscape:connector-curvature="0"
       transform="scale(0.26458333)" />
    <path
       style="fill:#ff0000;fill-opacity:0;fill-rule:evenodd;stroke-width:2.85714293"
       d="m 724.06369,681.70594 c -4.39691,-3.21509 -4.74452,-4.81294 -1.92466,-8.84691 1.89278,-2.70773 7.6501,-11.6434 12.79405,-19.85704 6.48144,-10.3493 10.66832,-14.41116 13.63835,-13.23112 2.35714,0.93653 5.89286,1.76393 7.85714,1.83866 1.96429,0.0747 3.57143,1.06793 3.57143,2.2071 0,2.1291 14.02535,6.85458 17.85714,6.01651 1.17857,-0.25778 2.14286,0.67765 2.14286,2.07872 0,1.40108 3.366,3.39222 7.48,4.42477 4.11399,1.03255 6.83754,2.51981 6.05232,3.30503 -0.78523,0.78523 -15.52953,6.95376 -32.76511,13.70787 -27.54159,10.79271 -31.98743,11.80491 -36.70352,8.35641 z"
       id="path139"
       inkscape:connector-curvature="0"
       transform="scale(0.26458333)" />
    <path
       style="fill:#ff0000;fill-opacity:0;fill-rule:evenodd;stroke-width:2.85714293"
       d="m 724.06369,681.70594 c -4.39691,-3.21509 -4.74452,-4.81294 -1.92466,-8.84691 1.89278,-2.70773 7.6501,-11.6434 12.79405,-19.85704 6.48144,-10.3493 10.66832,-14.41116 13.63835,-13.23112 2.35714,0.93653 5.89286,1.76393 7.85714,1.83866 1.96429,0.0747 3.57143,1.06793 3.57143,2.2071 0,2.1291 14.02535,6.85458 17.85714,6.01651 1.17857,-0.25778 2.14286,0.67765 2.14286,2.07872 0,1.40108 3.366,3.39222 7.48,4.42477 4.11399,1.03255 6.83754,2.51981 6.05232,3.30503 -0.78523,0.78523 -15.52953,6.95376 -32.76511,13.70787 -27.54159,10.79271 -31.98743,11.80491 -36.70352,8.35641 z"
       id="path141"
       inkscape:connector-curvature="0"
       transform="scale(0.26458333)" />
    <path
       style="fill:#ff0000;fill-opacity:0;fill-rule:evenodd;stroke-width:0.75595242"
       d="m 209.59745,210.63205 c -1.16335,-0.85066 -1.25532,-1.27342 -0.50923,-2.34074 0.5008,-0.71642 2.02409,-3.08065 3.38509,-5.25385 1.71488,-2.73825 2.82266,-3.81295 3.60848,-3.50073 0.62366,0.24779 1.55915,0.46671 2.07887,0.48648 0.51972,0.0198 0.94494,0.28256 0.94494,0.58396 0,0.56333 3.71087,1.81361 4.7247,1.59187 0.31183,-0.0682 0.56697,0.17929 0.56697,0.54999 0,0.37071 0.89058,0.89753 1.97908,1.17072 1.08849,0.2732 1.8091,0.6667 1.60134,0.87446 -0.20776,0.20776 -4.10885,1.83985 -8.6691,3.62687 -7.28704,2.85558 -8.46334,3.12339 -9.71114,2.21097 z"
       id="path51"
       inkscape:connector-curvature="0" />
    <path
       sodipodi:type="spiral"
       style="fill:none;fill-rule:evenodd;stroke:#000000;stroke-width:0.26458332"
       id="path59"
       sodipodi:cx="122.58012"
       sodipodi:cy="137.34445"
       sodipodi:expansion="1"
       sodipodi:revolution="4.5999999"
       sodipodi:radius="168.4194"
       sodipodi:argument="-31.231392"
       sodipodi:t0="0"
       d="m 122.58012,137.34445 c 5.41363,1.0105 1.30876,7.79602 -1.67952,8.99782 -8.09806,3.25681 -15.39835,-4.97135 -16.31613,-12.35685 -1.6417,-13.21094 10.67253,-23.33065 23.0342,-23.63444 18.14125,-0.44582 31.41457,16.42087 30.95274,33.71154 -0.61555,23.04574 -22.18201,39.55809 -44.38888,38.27105 -27.945083,-1.61961 -47.731411,-27.94828 -45.58935,-55.06622 2.594321,-32.843466 33.71724,-55.92181 65.74356,-52.907658 37.74191,3.552075 64.12289,39.487858 60.22596,76.420898 -4.49917,42.64066 -45.25958,72.33111 -87.09824,67.54427 C 59.924711,212.88574 26.92013,167.29278 32.601888,120.54928 38.975962,68.110133 89.40705,31.788098 141.05481,38.368401 c 57.3388,7.305384 96.98076,62.578689 89.49918,119.130259 -8.23396,62.23869 -68.35255,105.20243 -129.8076,96.81749 C 33.607639,245.15572 -12.679364,180.18945 -3.3894028,113.83121 6.695844,41.792235 76.511662,-7.8191862 147.77288,2.37711 224.71221,13.385849 277.64898,88.052727 266.54528,164.21673 254.61412,246.05652 175.09496,302.31943 94.028318,290.30744 7.287964,277.45475 -52.301705,193.08228 -39.380694,107.11314 -34.175142,72.478316 -17.773103,39.959448 6.8036406,15.029682"
       transform="matrix(1.0403274,0,0,1.0498207,-16.570728,-11.955455)" />
  </g>
</svg>
